<?xml version="1.0" standalone="no"?>
<!DOCTYPE svg PUBLIC "-//W3C//DTD SVG 20010904//EN"
 "http://www.w3.org/TR/2001/REC-SVG-20010904/DTD/svg10.dtd">
<svg version="1.0" xmlns="http://www.w3.org/2000/svg"
 width="800.000000pt" height="800.000000pt" viewBox="0 0 800.000000 800.000000"
 preserveAspectRatio="xMidYMid meet">
<metadata>
Created by potrace 1.14, written by Peter Selinger 2001-2017
</metadata>
<g transform="translate(0.000000,800.000000) scale(0.100000,-0.100000)"
fill="#000000" stroke="none">
<path d="M3760 6910 c-247 -24 -467 -69 -680 -140 -319 -106 -592 -253 -874
-469 -106 -80 -356 -322 -448 -431 -316 -379 -536 -845 -627 -1330 -34 -186
-46 -320 -46 -540 0 -373 54 -679 177 -1009 154 -414 361 -735 677 -1051 470
-470 1029 -746 1696 -836 180 -25 550 -25 730 0 543 74 1001 266 1435 599 132
102 371 339 479 476 291 367 479 764 575 1211 46 216 60 357 60 610 0 170 -5
271 -18 365 -91 670 -371 1235 -845 1705 -404 402 -895 669 -1441 785 -240 51
-633 77 -850 55z m1650 -893 c74 -49 70 12 70 -911 1 -456 0 -830 -2 -831 -43
-37 -194 -133 -200 -127 -5 5 -7 385 -6 845 l3 837 -957 0 -958 0 0 -335 c0
-371 -2 -384 -61 -426 l-34 -24 -347 -3 -348 -3 -2 -567 c-2 -312 -2 -948 0
-1414 l2 -848 1353 0 1352 0 -3 534 c-1 336 1 543 8 560 14 37 33 32 53 -13
22 -49 57 -86 107 -115 l40 -23 0 -523 c0 -583 3 -559 -70 -607 l-33 -23
-1451 0 c-1361 0 -1453 1 -1486 18 -19 9 -45 32 -57 51 l-23 34 0 1569 c0
1344 2 1573 14 1596 20 38 724 738 761 756 26 14 160 16 1136 16 l1106 0 33
-23z m-550 -437 c22 -14 25 -889 3 -920 -14 -20 -24 -20 -404 -20 -250 0 -397
4 -410 10 -18 10 -19 26 -19 463 0 339 3 456 12 465 15 15 794 17 818 2z
m1344 -1103 c13 -9 42 -44 65 -78 34 -51 41 -70 41 -110 0 -63 -24 -88 -177
-193 l-112 -76 -46 67 c-25 38 -71 104 -101 147 -30 43 -53 80 -52 81 2 1 50
35 108 77 58 41 119 82 135 92 36 19 103 16 139 -7z m-386 -289 c63 -89 124
-176 135 -194 4 -7 -130 -107 -356 -265 -199 -139 -503 -352 -676 -472 l-315
-220 -19 24 c-40 50 -185 264 -182 269 3 4 331 235 588 412 45 31 87 61 92 65
6 5 66 47 135 94 69 48 215 150 325 227 110 78 203 142 207 142 4 0 33 -37 66
-82z m-947 45 c6 -35 6 -121 0 -131 -9 -15 -41 -15 -1123 -13 l-778 1 0 69 c0
46 4 71 13 74 20 9 1887 8 1888 0z m1453 -219 c75 -110 75 -130 -1 -185 -146
-103 -596 -418 -667 -466 -110 -75 -165 -70 -182 15 -5 26 -1 36 22 59 16 16
164 122 329 237 165 115 310 218 323 229 27 25 28 47 2 80 l-20 25 63 50 c34
28 65 47 68 44 4 -4 32 -44 63 -88z m-1604 -268 c0 -2 -26 -21 -57 -42 -32
-21 -78 -53 -102 -71 l-44 -33 -747 0 c-741 0 -748 0 -774 21 -31 24 -35 73
-8 107 l17 22 858 0 c471 0 857 -2 857 -4z m-342 -508 c110 -150 164 -237 158
-254 -4 -11 -41 -41 -82 -68 -63 -42 -78 -48 -94 -38 -16 10 -30 -4 -121 -128
l-103 -139 -71 -15 c-38 -9 -166 -35 -284 -59 -157 -32 -216 -48 -223 -60 -5
-10 -21 -17 -35 -17 -19 0 17 30 153 126 233 165 222 158 255 156 53 -4 74 64
27 89 -24 13 -68 -12 -68 -39 0 -9 -15 -27 -33 -40 -17 -12 -75 -53 -127 -90
-178 -126 -240 -165 -248 -158 -7 8 24 36 42 36 6 1 61 82 121 182 205 337
186 312 258 332 195 53 267 79 262 95 -2 9 -1 21 3 26 9 14 154 115 164 115 4
0 25 -24 46 -52z m-348 23 c0 -5 -14 -11 -30 -15 -91 -18 -234 -71 -265 -97
l-33 -29 -346 0 c-333 0 -347 1 -366 20 -30 30 -27 83 6 109 26 21 36 21 530
21 281 0 504 -4 504 -9z m-540 -481 c0 -13 -63 -104 -83 -121 -20 -16 -43 -18
-214 -19 -187 0 -192 1 -207 22 -21 30 -20 81 2 101 15 14 51 17 243 19 123 2
232 3 242 3 9 1 17 -2 17 -5z"/>
<path d="M4081 5203 c0 -201 4 -329 9 -317 15 38 75 89 126 108 27 10 68 29
90 41 l42 22 11 -91 c13 -102 43 -204 71 -238 18 -22 19 -22 38 -5 32 29 61
109 79 219 9 57 18 104 19 106 3 5 162 -75 194 -98 17 -12 39 -38 50 -58 l19
-37 1 343 0 342 -375 0 -375 0 1 -337z m456 295 c66 -33 78 -51 78 -117 0 -32
5 -64 11 -72 18 -21 5 -78 -21 -95 -13 -8 -26 -26 -29 -38 -3 -13 -22 -38 -41
-55 -67 -59 -175 -31 -201 53 -4 11 -17 31 -30 43 -25 23 -34 86 -15 98 6 3 9
34 8 69 -1 52 2 68 18 86 47 53 147 66 222 28z m-52 -448 c9 -14 -16 -80 -30
-80 -17 0 -35 66 -22 79 14 14 44 14 52 1z m-12 -97 c9 -9 -13 -34 -24 -27
-14 8 -11 34 4 34 8 0 17 -3 20 -7z m2 -64 c2 -12 -3 -15 -19 -13 l-21 5 21
-10 c28 -12 35 -33 19 -54 -11 -15 -35 -24 -35 -13 0 2 -3 11 -6 19 -4 12 0
14 18 11 22 -4 22 -4 2 5 -18 8 -25 38 -15 69 3 11 35 -6 36 -19z"/>
<path d="M4490 5358 c-24 -11 -73 -23 -108 -26 l-64 -5 5 -49 c8 -60 51 -142
83 -157 67 -30 121 -3 157 77 34 76 36 136 5 163 -27 22 -22 22 -78 -3z m-72
-65 c2 -8 -5 -13 -17 -13 -12 0 -21 6 -21 16 0 18 31 15 38 -3z m112 2 c0 -8
-9 -15 -20 -15 -20 0 -26 11 -13 23 12 13 33 7 33 -8z m-43 -109 c-4 -13 -33
-20 -53 -12 -23 9 -9 21 25 22 19 1 30 -3 28 -10z"/>
</g>
</svg>
